<svg width="177" height="12" viewBox="0 0 177 12" fill="none" xmlns="http://www.w3.org/2000/svg">
<path fill-rule="evenodd" clip-rule="evenodd" d="M151.5 0.153564C150.672 0.153564 150 0.825137 150 1.65356C150 2.48199 150.672 3.15356 151.5 3.15356H155.094C162.074 3.15356 168.811 5.7151 174.028 10.3524L174.503 10.7747C175.123 11.3251 176.071 11.2693 176.621 10.6501C177.172 10.0309 177.116 9.08283 176.497 8.53245L176.021 8.11017C170.255 2.98474 162.809 0.153564 155.094 0.153564H151.5ZM25.5 0.335999C26.3284 0.335999 27 1.00757 27 1.836C27 2.66443 26.3284 3.336 25.5 3.336H21.906C14.9259 3.336 8.18858 5.89754 2.97163 10.5348L2.49656 10.9571C1.87739 11.5075 0.929279 11.4517 0.378902 10.8325C-0.171475 10.2134 -0.115704 9.26526 0.503471 8.71488L0.978536 8.2926C6.74465 3.16717 14.1912 0.335999 21.906 0.335999H25.5Z" fill="white"/>
</svg>
