<svg width="198" height="38" viewBox="0 0 198 38" fill="none" xmlns="http://www.w3.org/2000/svg">
<g filter="url(#filter0_d_163_126)">
<path fill-rule="evenodd" clip-rule="evenodd" d="M16 13.0847V26.0192H21.1977C24.6271 26.0192 27.3589 23.1498 27.1905 19.7245L26.8207 16.4337C26.7792 16.0652 26.5372 15.7498 26.1919 15.6144L17.365 12.1537C16.7091 11.8965 16 12.3802 16 13.0847ZM172.063 15.6412L180.63 12.2289C181.287 11.9674 182 12.4511 182 13.1579V25.6832H177.142C173.588 25.6832 170.813 22.611 171.173 19.0752L171.439 16.4689C171.476 16.0981 171.717 15.7791 172.063 15.6412Z" fill="white"/>
<path d="M16 26.0192H14.5C14.5 26.8476 15.1716 27.5192 16 27.5192V26.0192ZM27.1905 19.7245L28.6887 19.6508C28.6871 19.6195 28.6846 19.5882 28.6811 19.557L27.1905 19.7245ZM26.8207 16.4337L25.33 16.6012L25.33 16.6012L26.8207 16.4337ZM26.1919 15.6144L26.7394 14.2179L26.7394 14.2179L26.1919 15.6144ZM17.365 12.1537L17.9125 10.7572L17.9125 10.7572L17.365 12.1537ZM180.63 12.2289L181.185 13.6224L181.185 13.6224L180.63 12.2289ZM172.063 15.6412L171.508 14.2477L171.508 14.2477L172.063 15.6412ZM182 25.6832V27.1832C182.828 27.1832 183.5 26.5116 183.5 25.6832H182ZM171.173 19.0752L172.665 19.2272L172.665 19.2272L171.173 19.0752ZM171.439 16.4689L169.946 16.3169L169.946 16.3169L171.439 16.4689ZM16 27.5192C16.8284 27.5192 17.5 26.8476 17.5 26.0192C17.5 25.1907 16.8284 24.5192 16 24.5192V27.5192ZM12 24.5192C11.1716 24.5192 10.5 25.1907 10.5 26.0192C10.5 26.8476 11.1716 27.5192 12 27.5192V24.5192ZM182 24.1832C181.172 24.1832 180.5 24.8548 180.5 25.6832C180.5 26.5116 181.172 27.1832 182 27.1832V24.1832ZM186 27.1832C186.828 27.1832 187.5 26.5116 187.5 25.6832C187.5 24.8548 186.828 24.1832 186 24.1832V27.1832ZM17.5 26.0192V13.0847H14.5V26.0192H17.5ZM21.1977 24.5192H16V27.5192H21.1977V24.5192ZM25.6923 19.7982C25.8186 22.3671 23.7698 24.5192 21.1977 24.5192V27.5192C25.4845 27.5192 28.8992 23.9324 28.6887 19.6508L25.6923 19.7982ZM25.33 16.6012L25.6999 19.892L28.6811 19.557L28.3113 16.2662L25.33 16.6012ZM25.6444 17.0109C25.4718 16.9432 25.3507 16.7855 25.33 16.6012L28.3113 16.2662C28.2077 15.3448 27.6027 14.5563 26.7394 14.2179L25.6444 17.0109ZM16.8175 13.5502L25.6444 17.0109L26.7394 14.2179L17.9125 10.7572L16.8175 13.5502ZM17.5 13.0847C17.5 13.437 17.1455 13.6788 16.8175 13.5502L17.9125 10.7572C16.2727 10.1143 14.5 11.3234 14.5 13.0847H17.5ZM180.075 10.8354L171.508 14.2477L172.618 17.0347L181.185 13.6224L180.075 10.8354ZM183.5 13.1579C183.5 11.3908 181.717 10.1815 180.075 10.8354L181.185 13.6224C180.857 13.7532 180.5 13.5113 180.5 13.1579H183.5ZM183.5 25.6832V13.1579H180.5V25.6832H183.5ZM177.142 27.1832H182V24.1832H177.142V27.1832ZM169.681 18.9232C169.231 23.343 172.7 27.1832 177.142 27.1832V24.1832C174.477 24.1832 172.395 21.8791 172.665 19.2272L169.681 18.9232ZM169.946 16.3169L169.681 18.9232L172.665 19.2272L172.931 16.6209L169.946 16.3169ZM171.508 14.2477C170.643 14.5924 170.041 15.3899 169.946 16.3169L172.931 16.6209C172.912 16.8062 172.792 16.9657 172.618 17.0347L171.508 14.2477ZM16 24.5192H12V27.5192H16V24.5192ZM182 27.1832H186V24.1832H182V27.1832Z" fill="white"/>
</g>
<defs>
<filter id="filter0_d_163_126" x="0.5" y="0.582275" width="197" height="36.9369" filterUnits="userSpaceOnUse" color-interpolation-filters="sRGB">
<feFlood flood-opacity="0" result="BackgroundImageFix"/>
<feColorMatrix in="SourceAlpha" type="matrix" values="0 0 0 0 0 0 0 0 0 0 0 0 0 0 0 0 0 0 127 0" result="hardAlpha"/>
<feOffset/>
<feGaussianBlur stdDeviation="5"/>
<feComposite in2="hardAlpha" operator="out"/>
<feColorMatrix type="matrix" values="0 0 0 0 1 0 0 0 0 1 0 0 0 0 1 0 0 0 0.75 0"/>
<feBlend mode="normal" in2="BackgroundImageFix" result="effect1_dropShadow_163_126"/>
<feBlend mode="normal" in="SourceGraphic" in2="effect1_dropShadow_163_126" result="shape"/>
</filter>
</defs>
</svg>
