<svg width="178" height="16" viewBox="0 0 178 16" fill="none" xmlns="http://www.w3.org/2000/svg">
<path fill-rule="evenodd" clip-rule="evenodd" d="M6 4.80231V14.3552H11.1977C14.6271 14.3552 17.3589 11.4858 17.1905 8.06051L16.8343 3.26218C16.7908 2.6759 16.2534 2.25346 15.6734 2.34968L6.83633 3.8158C6.35381 3.89585 6 4.31319 6 4.80231ZM162.575 2.38769L171.171 3.87564C171.65 3.95862 172 4.37451 172 4.86098V14.0192H167.029C163.516 14.0192 160.754 11.0141 161.051 7.51331L161.408 3.28871C161.457 2.70423 161.997 2.28763 162.575 2.38769Z" fill="white"/>
<path d="M6 14.3552H4.5C4.5 15.1836 5.17157 15.8552 6 15.8552V14.3552ZM17.1905 8.06051L18.6887 7.98684C18.688 7.97438 18.6873 7.96192 18.6864 7.94948L17.1905 8.06051ZM16.8343 3.26218L18.3302 3.15116L18.3302 3.15116L16.8343 3.26218ZM15.6734 2.34968L15.9189 3.82946L15.9189 3.82946L15.6734 2.34968ZM6.83633 3.8158L7.08183 5.29557L7.08183 5.29557L6.83633 3.8158ZM171.171 3.87564L170.915 5.35366L170.915 5.35366L171.171 3.87564ZM162.575 2.38769L162.319 3.8657L162.319 3.8657L162.575 2.38769ZM172 14.0192V15.5192C172.828 15.5192 173.5 14.8476 173.5 14.0192H172ZM161.051 7.51331L162.545 7.63979L162.545 7.63979L161.051 7.51331ZM161.408 3.28871L159.913 3.16221L159.913 3.16224L161.408 3.28871ZM6 15.8552C6.82843 15.8552 7.5 15.1836 7.5 14.3552C7.5 13.5268 6.82843 12.8552 6 12.8552V15.8552ZM2 12.8552C1.17157 12.8552 0.5 13.5268 0.5 14.3552C0.5 15.1836 1.17157 15.8552 2 15.8552V12.8552ZM172 12.5192C171.172 12.5192 170.5 13.1908 170.5 14.0192C170.5 14.8476 171.172 15.5192 172 15.5192V12.5192ZM176 15.5192C176.828 15.5192 177.5 14.8476 177.5 14.0192C177.5 13.1908 176.828 12.5192 176 12.5192V15.5192ZM7.5 14.3552V4.80231H4.5V14.3552H7.5ZM11.1977 12.8552H6V15.8552H11.1977V12.8552ZM15.6923 8.13418C15.8186 10.7031 13.7698 12.8552 11.1977 12.8552V15.8552C15.4845 15.8552 18.8992 12.2685 18.6887 7.98684L15.6923 8.13418ZM15.3384 3.37321L15.6946 8.17153L18.6864 7.94948L18.3302 3.15116L15.3384 3.37321ZM15.9189 3.82946C15.6289 3.87757 15.3602 3.66635 15.3384 3.37321L18.3302 3.15116C18.2214 1.68544 16.8778 0.629362 15.4279 0.869911L15.9189 3.82946ZM7.08183 5.29557L15.9189 3.82946L15.4279 0.869911L6.59083 2.33602L7.08183 5.29557ZM7.5 4.80231C7.5 5.04687 7.3231 5.25554 7.08183 5.29557L6.59083 2.33602C5.38452 2.53615 4.5 3.57951 4.5 4.80231H7.5ZM171.426 2.39762L162.831 0.909668L162.319 3.8657L170.915 5.35366L171.426 2.39762ZM173.5 4.86098C173.5 3.6448 172.625 2.60506 171.426 2.39762L170.915 5.35366C170.675 5.31217 170.5 5.10422 170.5 4.86098H173.5ZM173.5 14.0192V4.86098H170.5V14.0192H173.5ZM167.029 15.5192H172V12.5192H167.029V15.5192ZM159.556 7.38683C159.186 11.7628 162.638 15.5192 167.029 15.5192V12.5192C164.394 12.5192 162.323 10.2654 162.545 7.63979L159.556 7.38683ZM159.913 3.16224L159.556 7.38684L162.545 7.63979L162.903 3.41519L159.913 3.16224ZM162.831 0.909668C161.386 0.659534 160.037 1.70105 159.913 3.16221L162.903 3.41522C162.878 3.70741 162.608 3.91574 162.319 3.8657L162.831 0.909668ZM6 12.8552H2V15.8552H6V12.8552ZM172 15.5192H176V12.5192H172V15.5192Z" fill="white"/>
</svg>
