<svg width="178" height="24" viewBox="0 0 178 24" fill="none" xmlns="http://www.w3.org/2000/svg">
<path fill-rule="evenodd" clip-rule="evenodd" d="M172 8.61399V22.1728H166.8C163.371 22.1728 160.64 19.3049 160.807 15.8805L161.248 6.83207C161.383 4.06381 163.87 2.01134 166.613 2.40329C169.704 2.84483 172 5.49186 172 8.61399ZM6 9.10812V22.5088H11.1977C14.6271 22.5088 17.3589 19.6394 17.1905 16.2141L16.7533 7.3241C16.6173 4.55873 14.1348 2.50795 11.3935 2.89644C8.29958 3.33489 6 5.98332 6 9.10812Z" fill="white"/>
<path d="M172 22.1728V23.6728C172.828 23.6728 173.5 23.0012 173.5 22.1728H172ZM160.807 15.8805L162.305 15.9535L162.305 15.9535L160.807 15.8805ZM161.248 6.83207L159.75 6.75898L159.75 6.75898L161.248 6.83207ZM166.613 2.40329L166.826 0.918368L166.826 0.918368L166.613 2.40329ZM6 22.5088H4.5C4.5 23.3372 5.17157 24.0088 6 24.0088V22.5088ZM17.1905 16.2141L18.6887 16.1404L18.6887 16.1404L17.1905 16.2141ZM16.7533 7.3241L18.2515 7.25043L18.2515 7.25042L16.7533 7.3241ZM11.3935 2.89644L11.183 1.41128L11.183 1.41128L11.3935 2.89644ZM6 24.0088C6.82843 24.0088 7.5 23.3372 7.5 22.5088C7.5 21.6803 6.82843 21.0088 6 21.0088V24.0088ZM2 21.0088C1.17157 21.0088 0.5 21.6803 0.5 22.5088C0.5 23.3372 1.17157 24.0088 2 24.0088V21.0088ZM172 20.6728C171.172 20.6728 170.5 21.3444 170.5 22.1728C170.5 23.0012 171.172 23.6728 172 23.6728V20.6728ZM176 23.6728C176.828 23.6728 177.5 23.0012 177.5 22.1728C177.5 21.3444 176.828 20.6728 176 20.6728V23.6728ZM173.5 22.1728V8.61399H170.5V22.1728H173.5ZM166.8 23.6728H172V20.6728H166.8V23.6728ZM159.309 15.8074C159.1 20.0879 162.514 23.6728 166.8 23.6728V20.6728C164.228 20.6728 162.18 18.5219 162.305 15.9535L159.309 15.8074ZM159.75 6.75898L159.309 15.8074L162.305 15.9535L162.747 6.90515L159.75 6.75898ZM166.826 0.918368C163.207 0.401461 159.928 3.10824 159.75 6.75898L162.747 6.90515C162.839 5.01938 164.532 3.62121 166.401 3.88822L166.826 0.918368ZM173.5 8.61399C173.5 4.74538 170.655 1.46547 166.826 0.918368L166.401 3.88822C168.753 4.22419 170.5 6.23833 170.5 8.61399H173.5ZM7.5 22.5088V9.10812H4.5V22.5088H7.5ZM11.1977 21.0088H6V24.0088H11.1977V21.0088ZM15.6923 16.2878C15.8186 18.8567 13.7698 21.0088 11.1977 21.0088V24.0088C15.4845 24.0088 18.8992 20.422 18.6887 16.1404L15.6923 16.2878ZM15.2551 7.39777L15.6923 16.2878L18.6887 16.1404L18.2515 7.25043L15.2551 7.39777ZM11.6039 4.3816C13.4714 4.11696 15.1625 5.51397 15.2551 7.39777L18.2515 7.25042C18.0722 3.60349 14.7982 0.898948 11.183 1.41128L11.6039 4.3816ZM7.5 9.10812C7.5 6.73043 9.24977 4.71522 11.6039 4.3816L11.183 1.41128C7.34938 1.95455 4.5 5.23621 4.5 9.10812H7.5ZM6 21.0088H2V24.0088H6V21.0088ZM172 23.6728H176V20.6728H172V23.6728Z" fill="white"/>
</svg>
