<svg width="174" height="24" viewBox="0 0 174 24" fill="none" xmlns="http://www.w3.org/2000/svg">
<path fill-rule="evenodd" clip-rule="evenodd" d="M170 8.25877V16.2077C170 19.306 167.488 21.8176 164.39 21.8176C161.185 21.8176 158.631 19.1362 158.787 15.9344L159.248 6.47684C159.383 3.70858 161.87 1.65611 164.613 2.04807C167.704 2.4896 170 5.13663 170 8.25877ZM4 16.9558C4 19.8264 6.32709 22.1535 9.19771 22.1535C12.6271 22.1535 15.3589 19.2842 15.1905 15.8589L14.7533 6.96887C14.6173 4.2035 12.1348 2.15273 9.39346 2.54121C6.29958 2.97966 4 5.62809 4 8.7529V16.9558Z" fill="white"/>
<path d="M158.787 15.9344L160.285 16.0075L160.285 16.0075L158.787 15.9344ZM159.248 6.47684L157.75 6.40376L157.75 6.40376L159.248 6.47684ZM164.613 2.04807L164.826 0.563144L164.826 0.563143L164.613 2.04807ZM15.1905 15.8589L16.6887 15.7852L16.6887 15.7852L15.1905 15.8589ZM14.7533 6.96887L16.2515 6.8952L16.2515 6.8952L14.7533 6.96887ZM9.39346 2.54121L9.18299 1.05605L9.18299 1.05605L9.39346 2.54121ZM171.5 16.2077V8.25877H168.5V16.2077H171.5ZM164.39 23.3176C168.317 23.3176 171.5 20.1344 171.5 16.2077H168.5C168.5 18.4775 166.66 20.3176 164.39 20.3176V23.3176ZM157.289 15.8613C157.091 19.9192 160.327 23.3176 164.39 23.3176V20.3176C162.042 20.3176 160.171 18.3531 160.285 16.0075L157.289 15.8613ZM157.75 6.40376L157.289 15.8613L160.285 16.0075L160.747 6.54992L157.75 6.40376ZM164.826 0.563143C161.207 0.0462364 157.928 2.75301 157.75 6.40376L160.747 6.54993C160.839 4.66416 162.532 3.26599 164.401 3.53299L164.826 0.563143ZM171.5 8.25877C171.5 4.39015 168.655 1.11025 164.826 0.563144L164.401 3.53299C166.753 3.86896 168.5 5.88311 168.5 8.25877H171.5ZM9.19771 20.6535C7.15552 20.6535 5.5 18.998 5.5 16.9558H2.5C2.5 20.6549 5.49866 23.6535 9.19771 23.6535V20.6535ZM13.6923 15.9325C13.8186 18.5015 11.7698 20.6535 9.19771 20.6535V23.6535C13.4845 23.6535 16.8992 20.0668 16.6887 15.7852L13.6923 15.9325ZM13.2551 7.04255L13.6923 15.9325L16.6887 15.7852L16.2515 6.8952L13.2551 7.04255ZM9.60393 4.02637C11.4714 3.76173 13.1625 5.15874 13.2551 7.04255L16.2515 6.8952C16.0722 3.24826 12.7982 0.543724 9.18299 1.05605L9.60393 4.02637ZM5.5 8.7529C5.5 6.37521 7.24977 4.35999 9.60393 4.02637L9.18299 1.05605C5.34938 1.59933 2.5 4.88098 2.5 8.7529H5.5ZM5.5 16.9558V8.7529H2.5V16.9558H5.5Z" fill="white"/>
</svg>
