<svg width="136" height="94" viewBox="0 0 136 94" fill="none" xmlns="http://www.w3.org/2000/svg">
<mask id="mask0_161_68" style="mask-type:alpha" maskUnits="userSpaceOnUse" x="0" y="0" width="136" height="94">
<path fill-rule="evenodd" clip-rule="evenodd" d="M9.01374 37.019C15.5482 28.6173 25.9855 18.4166 41.6236 3.92196L112.415 0C121.986 14.921 133.03 41.2428 135.493 70.9241C134.687 77.4326 133.209 81.5625 130.576 84.6026C127.928 87.6603 123.947 89.8106 117.675 91.9799C92.2908 94.6028 77.6491 94.6847 50.6583 91.9625C35.1938 90.2602 22.9913 87.9314 14.4109 83.0414C10.1547 80.6158 6.81647 77.5727 4.41347 73.6731C2.01481 69.7805 0.499344 64.9553 0.000360183 58.8885C-0.0346435 51.8765 2.47831 45.4219 9.01374 37.019Z" fill="#37374C"/>
</mask>
<g mask="url(#mask0_161_68)">
<rect x="-9.5" y="-43.5458" width="173" height="145" fill="#D9D9D9"/>
</g>
</svg>
