<svg width="210" height="210" viewBox="0 0 210 210" fill="none" xmlns="http://www.w3.org/2000/svg">
<g filter="url(#filter0_ii_161_71)">
<path fill-rule="evenodd" clip-rule="evenodd" d="M101.501 79.5C83.5294 32.281 74.6413 10.0799 69.5008 9C64.1583 8.85155 63.6164 10.4866 63.5008 14C62.8941 15.9181 62.3351 17.7636 61.8197 19.5724C62.3351 17.7636 62.8941 15.9181 63.5008 14C65.5982 16.1137 72.5764 30.9603 77.7508 43.75C70.6529 49.3663 68.6645 60.7924 72.0008 75.9L90.0008 79.5H101.501ZM65.0008 74.5L56.0008 64.5L52.0008 60C50.2856 63.7191 50.1335 65.9178 51.0008 70L65.0008 74.5ZM112.501 55.5C107.814 63.4258 106.414 68.6953 107.501 80.5C107.501 89 109.501 100 116.701 111C126.519 126 138.001 153 140.501 183.5C138.868 196.935 134.359 201.579 121.501 206C139.404 203.656 149.189 201.383 165.501 193C178.145 194.04 183.847 192.818 192.001 188L182.001 178.5C197.484 176.746 204.021 174.818 208.001 168L188.501 154.5C198.054 153.161 203.036 152.179 208.001 148C208.474 141.672 197.169 130.646 182.614 116.45L182.613 116.449C178.442 112.381 174.005 108.053 169.501 103.5C154.87 45.1848 141.779 9.92225 132.501 2C123.753 7.37311 116.32 30.2258 112.501 55.5ZM52.0008 79.5C58.6638 82.8317 61.8466 84.2907 67.0008 86.5L56.0008 93L52.0008 79.5ZM135.001 93C131.082 76.754 130.729 66.2447 138.001 41.5C146.602 56.8633 149.904 68.2182 155.501 89C154.943 86.8717 154.4 84.7943 153.87 82.7656C145.408 50.3958 140.19 30.4352 130.501 14C124.137 29.6217 121.272 40.77 116.701 62.5L135.001 93Z" fill="#6E635F"/>
</g>
<path d="M69.5008 9L69.8092 7.53204C69.7214 7.5136 69.6321 7.50307 69.5425 7.50058L69.5008 9ZM101.501 79.5V81C101.994 81 102.456 80.7575 102.736 80.3514C103.016 79.9453 103.078 79.4274 102.903 78.9664L101.501 79.5ZM63.5008 14L64.931 14.4524C64.9723 14.3218 64.9955 14.1862 65 14.0493L63.5008 14ZM60.3771 19.1614C60.1501 19.9581 60.6119 20.788 61.4086 21.015C62.2053 21.242 63.0352 20.7802 63.2622 19.9835L60.3771 19.1614ZM63.5008 14L64.5656 12.9435C64.1958 12.5708 63.658 12.4186 63.1478 12.5421C62.6375 12.6657 62.229 13.0471 62.0707 13.5476L63.5008 14ZM77.7508 43.75L78.6816 44.9263C79.2039 44.513 79.3911 43.8048 79.1413 43.1874L77.7508 43.75ZM72.0008 75.9L70.5361 76.2235C70.6643 76.8041 71.1235 77.2542 71.7066 77.3709L72.0008 75.9ZM90.0008 79.5L89.7066 80.9709C89.8035 80.9902 89.902 81 90.0008 81V79.5ZM65.0008 74.5L64.5418 75.928C65.1872 76.1355 65.8916 75.8842 66.26 75.3151C66.6284 74.746 66.5693 74.0005 66.1157 73.4966L65.0008 74.5ZM56.0008 64.5L54.8797 65.4966L54.8859 65.5034L56.0008 64.5ZM52.0008 60L53.1219 59.0035C52.7857 58.6252 52.2813 58.442 51.7807 58.5162C51.2801 58.5905 50.8506 58.9122 50.6387 59.3718L52.0008 60ZM51.0008 70L49.5336 70.3117C49.6453 70.8376 50.0299 71.2635 50.5418 71.428L51.0008 70ZM107.501 80.5H109.001C109.001 80.4541 108.999 80.4082 108.994 80.3625L107.501 80.5ZM112.501 55.5L113.792 56.2635C113.89 56.0977 113.955 55.9146 113.984 55.7241L112.501 55.5ZM116.701 111L115.446 111.821L115.446 111.821L116.701 111ZM140.501 183.5L141.99 183.681C142.002 183.58 142.004 183.479 141.996 183.377L140.501 183.5ZM121.501 206L121.013 204.581C120.285 204.832 119.864 205.593 120.041 206.343C120.217 207.093 120.932 207.587 121.696 207.487L121.501 206ZM165.501 193L165.624 191.505C165.345 191.482 165.064 191.538 164.815 191.666L165.501 193ZM192.001 188L192.764 189.291C193.169 189.052 193.438 188.637 193.491 188.169C193.544 187.702 193.375 187.237 193.034 186.913L192.001 188ZM182.001 178.5L181.832 177.01C181.253 177.075 180.764 177.47 180.579 178.023C180.393 178.576 180.545 179.186 180.968 179.587L182.001 178.5ZM208.001 168L209.296 168.756C209.691 168.079 209.499 167.213 208.855 166.767L208.001 168ZM188.501 154.5L188.293 153.015C187.681 153.1 187.184 153.552 187.041 154.153C186.899 154.755 187.139 155.382 187.647 155.733L188.501 154.5ZM208.001 148L208.967 149.148C209.276 148.888 209.467 148.514 209.497 148.112L208.001 148ZM182.614 116.45L183.661 115.376L183.661 115.376L182.614 116.45ZM182.613 116.449L181.566 117.523L181.566 117.523L182.613 116.449ZM169.501 103.5L168.046 103.865C168.111 104.126 168.245 104.364 168.434 104.555L169.501 103.5ZM132.501 2L133.475 0.859245C132.98 0.436957 132.27 0.381481 131.716 0.721869L132.501 2ZM67.0008 86.5L67.7639 87.7914C68.2504 87.5039 68.5341 86.9674 68.4977 86.4035C68.4614 85.8396 68.1112 85.344 67.5918 85.1213L67.0008 86.5ZM52.0008 79.5L52.6717 78.1584C52.1372 77.8911 51.4952 77.9666 51.0372 78.3504C50.5793 78.7342 50.3929 79.3532 50.5626 79.9261L52.0008 79.5ZM56.0008 93L54.5626 93.4261C54.6939 93.8692 55.022 94.227 55.4521 94.396C55.8821 94.5651 56.3661 94.5265 56.7639 94.2914L56.0008 93ZM138.001 41.5L139.31 40.7672C139.015 40.2404 138.433 39.9418 137.833 40.0094C137.233 40.0771 136.732 40.4978 136.562 41.0771L138.001 41.5ZM135.001 93L133.715 93.7717C134.096 94.407 134.884 94.6688 135.569 94.3882C136.255 94.1075 136.633 93.3684 136.459 92.6482L135.001 93ZM155.501 89L154.052 89.39C154.267 90.1881 155.087 90.6619 155.886 90.4497C156.685 90.2375 157.161 89.4192 156.952 88.6198L155.501 89ZM153.87 82.7656L155.321 82.3862L155.321 82.3862L153.87 82.7656ZM130.501 14L131.793 13.2382C131.503 12.747 130.96 12.4624 130.392 12.504C129.823 12.5455 129.327 12.906 129.112 13.4341L130.501 14ZM116.701 62.5L115.233 62.1912C115.155 62.5614 115.22 62.9474 115.415 63.2717L116.701 62.5ZM135.001 93L133.715 93.7717C134.096 94.407 134.884 94.6688 135.569 94.3882C136.255 94.1075 136.633 93.3684 136.459 92.6482L135.001 93ZM138.001 41.5L139.31 40.7672C139.015 40.2404 138.433 39.9418 137.833 40.0094C137.233 40.0771 136.732 40.4978 136.562 41.0771L138.001 41.5ZM116.701 62.5L117.987 61.7283L117.987 61.7283L116.701 62.5ZM77.7508 43.75L79.1413 43.1874C78.9641 42.7495 78.591 42.4206 78.1342 42.2998C77.6775 42.1791 77.1905 42.2805 76.8201 42.5737L77.7508 43.75ZM69.1924 10.468C69.3984 10.5112 69.8416 10.7214 70.5322 11.4411C71.1994 12.1365 71.975 13.1781 72.8664 14.6199C74.6471 17.5 76.7681 21.7749 79.3168 27.5532C84.409 39.0981 91.1093 56.4138 100.099 80.0336L102.903 78.9664C93.9209 55.3673 87.1915 37.9729 82.0616 26.3425C79.4993 20.5332 77.3112 16.1042 75.4181 13.0422C74.4725 11.513 73.5699 10.274 72.697 9.36415C71.8473 8.47863 70.8884 7.75876 69.8092 7.53204L69.1924 10.468ZM65 14.0493C65.0606 12.2078 65.2606 11.5332 65.6088 11.1799C65.9419 10.8421 66.8116 10.4259 69.4591 10.4994L69.5425 7.50058C66.8475 7.42569 64.775 7.75269 63.4726 9.07365C62.1854 10.3792 62.0566 12.2787 62.0016 13.9507L65 14.0493ZM63.2622 19.9835C63.773 18.1909 64.3278 16.3594 64.931 14.4524L62.0706 13.5476C61.4604 15.4768 60.8971 17.3363 60.3771 19.1614L63.2622 19.9835ZM63.2622 19.9835C63.773 18.1909 64.3278 16.3594 64.931 14.4524L62.0707 13.5476C61.4604 15.4768 60.8971 17.3363 60.3771 19.1614L63.2622 19.9835ZM62.4361 15.0565C62.5762 15.1978 62.8425 15.543 63.2364 16.164C63.6138 16.7591 64.0613 17.5311 64.5676 18.4597C65.5794 20.3153 66.7969 22.7419 68.1175 25.5162C70.7575 31.0623 73.7837 37.9439 76.3603 44.3126L79.1413 43.1874C76.5435 36.7664 73.4934 29.8298 70.8263 24.2268C69.4934 21.4265 68.2497 18.9458 67.2015 17.0235C66.6778 16.0632 66.1956 15.2286 65.7698 14.5572C65.3604 13.9118 64.9497 13.3306 64.5656 12.9435L62.4361 15.0565ZM76.8201 42.5737C69.0062 48.7565 67.1714 60.9871 70.5361 76.2235L73.4655 75.5765C70.1577 60.5977 72.2997 49.976 78.6816 44.9263L76.8201 42.5737ZM90.295 78.0291L72.295 74.4291L71.7066 77.3709L89.7066 80.9709L90.295 78.0291ZM101.501 78H90.0008V81H101.501V78ZM66.1157 73.4966L57.1157 63.4966L54.8859 65.5034L63.8859 75.5034L66.1157 73.4966ZM50.8797 60.9965L54.8797 65.4965L57.1219 63.5035L53.1219 59.0035L50.8797 60.9965ZM52.4681 69.6883C52.0477 67.7098 51.9024 66.3104 52.0257 65.0049C52.1481 63.7088 52.5455 62.4005 53.3629 60.6282L50.6387 59.3718C49.7409 61.3185 49.2046 62.9692 49.039 64.7228C48.8743 66.467 49.0866 68.208 49.5336 70.3117L52.4681 69.6883ZM65.4598 73.072L51.4598 68.572L50.5418 71.428L64.5418 75.928L65.4598 73.072ZM108.994 80.3625C108.457 74.5297 108.547 70.4301 109.303 66.8557C110.056 63.2952 111.49 60.1556 113.792 56.2635L111.21 54.7365C108.824 58.7701 107.215 62.2282 106.368 66.2351C105.524 70.2281 105.457 74.6656 106.007 80.6375L108.994 80.3625ZM117.956 110.179C110.944 99.4664 109.001 88.7652 109.001 80.5H106.001C106.001 89.2348 108.057 100.534 115.446 111.821L117.956 110.179ZM141.996 183.377C139.474 152.608 127.899 125.37 117.956 110.179L115.446 111.821C125.139 126.63 136.528 153.392 139.006 183.623L141.996 183.377ZM121.988 207.419C128.482 205.186 133.138 202.815 136.344 199.112C139.568 195.39 141.159 190.52 141.99 183.681L139.012 183.319C138.21 189.915 136.73 194.085 134.077 197.148C131.406 200.232 127.378 202.393 121.013 204.581L121.988 207.419ZM164.815 191.666C148.7 199.948 139.093 202.184 121.306 204.513L121.696 207.487C139.714 205.128 149.678 202.818 166.186 194.334L164.815 191.666ZM191.238 186.709C187.253 189.063 183.953 190.489 180.15 191.224C176.322 191.964 171.893 192.021 165.624 191.505L165.378 194.495C171.753 195.02 176.497 194.986 180.719 194.17C184.967 193.349 188.595 191.755 192.764 189.291L191.238 186.709ZM180.968 179.587L190.968 189.087L193.034 186.913L183.034 177.413L180.968 179.587ZM206.705 167.244C204.903 170.333 202.555 172.306 198.78 173.748C194.91 175.226 189.579 176.132 181.832 177.01L182.17 179.99C189.906 179.114 195.585 178.179 199.85 176.55C204.209 174.885 207.12 172.486 209.296 168.756L206.705 167.244ZM187.647 155.733L207.147 169.233L208.855 166.767L189.355 153.267L187.647 155.733ZM207.035 146.852C202.439 150.72 197.873 151.671 188.293 153.015L188.709 155.985C198.235 154.65 203.632 153.637 208.967 149.148L207.035 146.852ZM181.567 117.523C188.862 124.639 195.272 130.893 199.807 136.155C202.073 138.785 203.826 141.116 204.977 143.139C206.146 145.193 206.59 146.751 206.505 147.888L209.497 148.112C209.648 146.085 208.857 143.892 207.584 141.655C206.294 139.388 204.399 136.888 202.079 134.196C197.441 128.814 190.921 122.457 183.661 115.376L181.567 117.523ZM181.566 117.523L181.567 117.524L183.661 115.376L183.66 115.375L181.566 117.523ZM168.434 104.555C172.949 109.119 177.396 113.456 181.566 117.523L183.66 115.375C179.488 111.306 175.06 106.987 170.567 102.445L168.434 104.555ZM131.527 3.14075C133.616 4.92454 136.065 8.39649 138.807 13.6908C141.528 18.9451 144.467 25.8538 147.585 34.3685C153.821 51.3948 160.737 74.7332 168.046 103.865L170.956 103.135C163.634 73.9515 156.689 50.501 150.402 33.3368C147.259 24.7561 144.271 17.7191 141.471 12.3112C138.691 6.9433 136.025 3.03658 133.475 0.859245L131.527 3.14075ZM113.984 55.7241C115.884 43.1522 118.677 31.221 122.064 21.7943C123.758 17.0799 125.588 13.0278 127.507 9.84684C129.44 6.64305 131.394 4.44031 133.286 3.27813L131.716 0.721869C129.234 2.24625 126.979 4.91501 124.938 8.29711C122.884 11.702 120.976 15.9502 119.241 20.7799C115.77 30.4414 112.937 42.5736 111.018 55.2759L113.984 55.7241ZM67.5918 85.1213C62.4666 82.9244 59.3104 81.478 52.6717 78.1584L51.3299 80.8416C58.0171 84.1855 61.2266 85.6569 66.4098 87.8787L67.5918 85.1213ZM56.7639 94.2914L67.7639 87.7914L66.2377 85.2086L55.2377 91.7086L56.7639 94.2914ZM50.5626 79.9261L54.5626 93.4261L57.439 92.5739L53.439 79.0739L50.5626 79.9261ZM136.562 41.0771C132.91 53.5011 131.144 62.4473 130.805 70.373C130.466 78.3196 131.567 85.1602 133.543 93.3518L136.459 92.6482C134.516 84.5938 133.48 78.0568 133.803 70.501C134.126 62.9244 135.819 54.2436 139.44 41.9229L136.562 41.0771ZM156.949 88.61C151.35 67.8172 148.009 56.3055 139.31 40.7672L136.692 42.2328C145.195 57.421 148.459 68.6191 154.052 89.39L156.949 88.61ZM152.418 83.1449C152.949 85.1736 153.492 87.2514 154.05 89.3802L156.952 88.6198C156.394 86.4919 155.851 84.4149 155.321 82.3862L152.418 83.1449ZM129.209 14.7618C138.768 30.9766 143.937 50.7007 152.418 83.145L155.321 82.3862C146.878 50.0908 141.612 29.8939 131.793 13.2382L129.209 14.7618ZM118.169 62.8088C122.733 41.1116 125.577 30.0649 131.89 14.5659L129.112 13.4341C122.698 29.1785 119.811 40.4283 115.233 62.1912L118.169 62.8088ZM136.287 92.2283L117.987 61.7283L115.415 63.2717L133.715 93.7717L136.287 92.2283ZM136.459 92.6482C134.516 84.5938 133.48 78.0568 133.803 70.501C134.126 62.9244 135.819 54.2436 139.44 41.9229L136.562 41.0771C132.91 53.5011 131.144 62.4473 130.805 70.373C130.466 78.3196 131.567 85.1602 133.543 93.3518L136.459 92.6482ZM136.692 42.2328C145.195 57.421 148.459 68.6191 154.052 89.39L156.949 88.61C151.35 67.8172 148.009 56.3055 139.31 40.7672L136.692 42.2328ZM156.952 88.6187C156.394 86.4913 155.851 84.4146 155.321 82.3862L152.418 83.1449C152.949 85.1732 153.492 87.2507 154.05 89.3792L156.952 88.6187ZM111.215 56.2717L115.415 63.2717L117.987 61.7283L113.787 54.7283L111.215 56.2717ZM115.415 63.2717L133.715 93.7717L136.287 92.2283L117.987 61.7283L115.415 63.2717ZM54.8859 65.5034L63.8859 75.5034L66.1157 73.4966L57.1157 63.4966L54.8859 65.5034ZM76.3603 44.3126C78.9273 50.6575 81.9766 59.5541 84.3914 66.8901C85.597 70.5527 86.6414 73.8168 87.3843 76.165C87.7557 77.3391 88.0516 78.284 88.2547 78.935C88.3562 79.2605 88.4345 79.5126 88.4873 79.6831C88.5137 79.7683 88.5338 79.8332 88.5472 79.8766C88.5539 79.8983 88.559 79.9147 88.5623 79.9256C88.564 79.9311 88.5653 79.9351 88.5661 79.9378C88.5665 79.9392 88.5668 79.9402 88.567 79.9408C88.5671 79.9412 88.5672 79.9414 88.5673 79.9416C88.5673 79.9417 88.5673 79.9417 90.0008 79.5C91.4343 79.0583 91.4342 79.0581 91.4342 79.0579C91.4341 79.0577 91.434 79.0574 91.4339 79.0571C91.4337 79.0563 91.4333 79.0552 91.4329 79.0538C91.432 79.0509 91.4307 79.0466 91.429 79.041C91.4255 79.0297 91.4203 79.013 91.4135 78.9909C91.3998 78.9467 91.3795 78.881 91.3528 78.795C91.2995 78.6229 91.2207 78.3692 91.1186 78.0419C90.9145 77.3873 90.6173 76.4385 90.2445 75.2602C89.4991 72.9037 88.4511 69.6283 87.241 65.9521C84.8244 58.6106 81.7487 49.6321 79.1413 43.1874L76.3603 44.3126ZM76.8201 42.5737C69.0062 48.7565 67.1714 60.9871 70.5361 76.2235L73.4655 75.5765C70.1577 60.5977 72.2997 49.976 78.6816 44.9263L76.8201 42.5737Z" fill="black"/>
<g filter="url(#filter1_ii_161_71)">
<path d="M208.001 148C208.609 139.859 189.723 123.941 169.501 103.5C170.075 129.01 166.655 140.082 151.501 152C152.621 143.692 152.475 138.884 148.001 129.5C145.483 133.312 143.458 135.197 138.501 138C137.962 132.138 137.321 129.376 135.501 125.5C133.117 129.468 131.282 130.598 127.501 131.5C135.001 148.5 136.001 157 140.501 183.5C138.868 196.935 134.359 201.579 121.501 206C139.404 203.656 149.189 201.383 165.501 193C178.145 194.04 183.847 192.818 192.001 188L182.001 178.5C197.484 176.746 204.021 174.818 208.001 168L188.501 154.5C198.054 153.161 203.036 152.179 208.001 148Z" fill="#9C9CA3"/>
</g>
<path d="M208.001 148C208.609 139.859 189.723 123.941 169.501 103.5C170.075 129.01 166.655 140.082 151.501 152C152.621 143.692 152.475 138.884 148.001 129.5C145.483 133.312 143.458 135.197 138.501 138C137.962 132.138 137.321 129.376 135.501 125.5C133.117 129.468 131.282 130.598 127.501 131.5C135.001 148.5 136.001 157 140.501 183.5C138.868 196.935 134.359 201.579 121.501 206C139.404 203.656 149.189 201.383 165.501 193C178.145 194.04 183.847 192.818 192.001 188L182.001 178.5C197.484 176.746 204.021 174.818 208.001 168L188.501 154.5C198.054 153.161 203.036 152.179 208.001 148Z" stroke="black" stroke-width="3" stroke-linejoin="round"/>
<g filter="url(#filter2_ii_161_71)">
<path d="M140.501 183.5C138.868 196.935 134.359 201.579 121.501 206C95.9069 208.651 81.1576 208.739 54.0007 206C23.0769 202.597 4.0378 196.611 2.00072 171.5C1.89749 156.532 12.8146 144.352 44.5007 115L116.701 111C126.519 126 138.001 153 140.501 183.5Z" fill="#37374C"/>
</g>
<path d="M140.501 183.5C138.868 196.935 134.359 201.579 121.501 206C95.9069 208.651 81.1576 208.739 54.0007 206C23.0769 202.597 4.0378 196.611 2.00072 171.5C1.89749 156.532 12.8146 144.352 44.5007 115L116.701 111C126.519 126 138.001 153 140.501 183.5Z" stroke="black" stroke-width="3" stroke-linejoin="round"/>
<g filter="url(#filter3_ii_161_71)">
<path d="M140.501 183.5C140.868 195.935 135.359 204.579 121.501 206C107.138 205.991 101.185 196.633 101.001 183.5C101.883 171.059 110.024 159.668 126.501 162.5C124.878 148.877 120.793 137.627 109.501 113L116.701 111C125.925 125.093 136.618 149.779 139.951 178.008C140.261 179.684 140.448 181.51 140.501 183.5Z" fill="#8C9098"/>
</g>
<path d="M140.501 183.5C140.868 195.935 135.359 204.579 121.501 206C107.138 205.991 101.185 196.633 101.001 183.5C101.883 171.059 110.024 159.668 126.501 162.5M140.501 183.5C138.001 153 126.519 126 116.701 111L109.501 113C120.793 137.627 124.878 148.877 126.501 162.5M140.501 183.5C140.173 171.047 134.57 164.974 126.501 162.5" stroke="black" stroke-width="3" stroke-linejoin="round"/>
<g filter="url(#filter4_i_161_71)">
<path d="M133.501 185C133.501 175.5 129.001 170 120.501 170C112.001 170 108.001 177 108.501 185.5C109.001 194 114.501 199 121.501 199C128.501 199 133.501 194.5 133.501 185Z" fill="#37374C"/>
</g>
<path d="M133.501 185C133.501 175.5 129.001 170 120.501 170C112.001 170 108.001 177 108.501 185.5C109.001 194 114.501 199 121.501 199C128.501 199 133.501 194.5 133.501 185Z" stroke="black" stroke-width="3" stroke-linejoin="round"/>
<mask id="mask0_161_71" style="mask-type:alpha" maskUnits="userSpaceOnUse" x="3" y="112" width="136" height="95">
<path fill-rule="evenodd" clip-rule="evenodd" d="M12.5137 149.565C19.0482 141.163 29.4855 130.962 45.1236 116.468L115.915 112.546C125.486 127.467 136.53 153.789 138.993 183.47C138.187 189.978 136.709 194.108 134.076 197.148C131.428 200.206 127.447 202.356 121.175 204.526C95.7908 207.149 81.1491 207.23 54.1583 204.508C38.6938 202.806 26.4913 200.477 17.9109 195.587C13.6547 193.162 10.3165 190.119 7.91347 186.219C5.51481 182.326 3.99934 177.501 3.50036 171.434C3.46536 164.422 5.97831 157.968 12.5137 149.565Z" fill="#37374C"/>
</mask>
<g mask="url(#mask0_161_71)">
<g filter="url(#filter5_d_161_71)">
<path d="M121 186.5C118.404 186.582 117.08 187.118 116.086 189.081C115.677 189.889 115.996 190.916 116.844 191.234C117.804 191.593 118.755 191.523 120.175 190.897C120.707 190.663 121.309 190.629 121.854 190.828C123.519 191.438 124.589 191.62 125.455 191.269C126.191 190.97 126.309 190.02 125.918 189.328C124.837 187.417 123.593 186.73 121 186.5Z" fill="#00DDFF"/>
<path d="M114.5 180C115.281 180.976 116.5 182.5 116.5 182.5M121 177.5V181M127.5 180L125.5 182.5M121 186.5C118.404 186.582 117.08 187.118 116.086 189.081C115.677 189.889 115.996 190.916 116.844 191.234C117.804 191.593 118.755 191.523 120.175 190.897C120.707 190.663 121.309 190.629 121.854 190.828C123.519 191.438 124.589 191.62 125.455 191.269C126.191 190.97 126.309 190.02 125.918 189.328C124.837 187.417 123.593 186.73 121 186.5Z" stroke="#00DDFF" stroke-width="3" stroke-linecap="round" stroke-linejoin="round"/>
</g>
</g>
<g filter="url(#filter6_i_161_71)">
<path d="M138.001 41.5C130.729 66.2447 131.082 76.754 135.001 93L116.701 62.5C121.272 40.77 124.137 29.6217 130.501 14C140.797 31.4652 146.044 52.9115 155.501 89C149.904 68.2182 146.602 56.8633 138.001 41.5Z" fill="#412A29"/>
<path d="M56.0007 64.5C56.8455 40.0422 58.6471 29.3449 63.5007 14C65.5981 16.1137 72.5763 30.9603 77.7507 43.75C70.6528 49.3663 68.6644 60.7924 72.0007 75.9L65.0007 74.5L56.0007 64.5Z" fill="#412A29"/>
</g>
<path d="M90.0007 79.5C90.0007 79.5 82.9252 56.5397 77.7507 43.75M77.7507 43.75C72.5763 30.9603 65.5981 16.1137 63.5007 14C58.6471 29.3449 56.8455 40.0422 56.0007 64.5L65.0007 74.5L72.0007 75.9C68.6644 60.7924 70.6528 49.3663 77.7507 43.75ZM135.001 93C131.082 76.754 130.729 66.2447 138.001 41.5C146.602 56.8633 149.904 68.2182 155.501 89C146.044 52.9115 140.797 31.4652 130.501 14C124.137 29.6217 121.272 40.77 116.701 62.5L135.001 93Z" stroke="black" stroke-width="3" stroke-linejoin="round"/>
<g filter="url(#filter7_ii_161_71)">
<path d="M208.001 148C208.609 139.859 189.723 123.941 169.501 103.5C169.688 127.911 166.341 139.141 151.001 152.5C160.798 155.806 165.91 157.802 172.001 162.5C167.8 165.876 164.752 167.477 158.501 170C160.859 172.938 162.376 174.275 165.501 176C161.859 179.933 158.336 181.832 151.001 185C151.001 185 154.765 193.486 158.501 196.404C160.719 195.395 163.035 194.267 165.501 193C178.145 194.04 183.847 192.818 192.001 188L182.001 178.5C197.484 176.746 204.021 174.818 208.001 168L188.501 154.5C198.054 153.161 203.036 152.179 208.001 148Z" fill="#373A40"/>
<path d="M90.0007 79.5L43.0007 69C47.3022 76.1496 51.9759 80.013 66.5007 86.5C48.0488 98.075 39.4469 104.933 28.0007 118C36.6847 115.158 40.5692 114.452 46.0007 114.5C35.9095 125.293 33.7318 129.244 29.5007 136.5C41.5205 131.863 47.9087 127.717 62.5007 113C56.4191 126.912 58.5292 132.314 63.5007 141.5L76.5007 105.5L61.5007 152.5C72.6621 141.677 78.0672 132.951 86.0007 112C100.47 116.713 117.001 111 117.001 111C117.001 111 109.353 94.6335 107.501 80.5C102.522 79.3557 98.4312 79.2412 90.0007 79.5Z" fill="#373A40"/>
</g>
<path d="M208.001 148C208.609 139.859 189.723 123.941 169.501 103.5C169.688 127.911 166.341 139.141 151.001 152.5C160.798 155.806 165.91 157.802 172.001 162.5C167.8 165.876 164.752 167.477 158.501 170C160.859 172.938 162.376 174.275 165.501 176C161.859 179.933 158.336 181.832 151.001 185C151.001 185 154.765 193.486 158.501 196.404C160.719 195.395 163.035 194.267 165.501 193C178.145 194.04 183.847 192.818 192.001 188L182.001 178.5C197.484 176.746 204.021 174.818 208.001 168L188.501 154.5C198.054 153.161 203.036 152.179 208.001 148Z" stroke="black" stroke-width="3" stroke-linejoin="round"/>
<path d="M90.0007 79.5L43.0007 69C47.3022 76.1496 51.9759 80.013 66.5007 86.5C48.0488 98.075 39.4469 104.933 28.0007 118C36.6847 115.158 40.5692 114.452 46.0007 114.5C35.9095 125.293 33.7318 129.244 29.5007 136.5C41.5205 131.863 47.9087 127.717 62.5007 113C56.4191 126.912 58.5292 132.314 63.5007 141.5L76.5007 105.5L61.5007 152.5C72.6621 141.677 78.0672 132.951 86.0007 112C100.47 116.713 117.001 111 117.001 111C117.001 111 109.353 94.6335 107.501 80.5C102.522 79.3557 98.4312 79.2412 90.0007 79.5Z" stroke="black" stroke-width="3" stroke-linejoin="round"/>
<defs>
<filter id="filter0_ii_161_71" x="40.9834" y="-7.5" width="168.532" height="223" filterUnits="userSpaceOnUse" color-interpolation-filters="sRGB">
<feFlood flood-opacity="0" result="BackgroundImageFix"/>
<feBlend mode="normal" in="SourceGraphic" in2="BackgroundImageFix" result="shape"/>
<feColorMatrix in="SourceAlpha" type="matrix" values="0 0 0 0 0 0 0 0 0 0 0 0 0 0 0 0 0 0 127 0" result="hardAlpha"/>
<feOffset dx="-16" dy="-16"/>
<feGaussianBlur stdDeviation="4"/>
<feComposite in2="hardAlpha" operator="arithmetic" k2="-1" k3="1"/>
<feColorMatrix type="matrix" values="0 0 0 0 0.360784 0 0 0 0 0.231373 0 0 0 0 0.282353 0 0 0 1 0"/>
<feBlend mode="normal" in2="shape" result="effect1_innerShadow_161_71"/>
<feColorMatrix in="SourceAlpha" type="matrix" values="0 0 0 0 0 0 0 0 0 0 0 0 0 0 0 0 0 0 127 0" result="hardAlpha"/>
<feOffset dy="16"/>
<feGaussianBlur stdDeviation="4"/>
<feComposite in2="hardAlpha" operator="arithmetic" k2="-1" k3="1"/>
<feColorMatrix type="matrix" values="0 0 0 0 1 0 0 0 0 1 0 0 0 0 1 0 0 0 0.25 0"/>
<feBlend mode="normal" in2="effect1_innerShadow_161_71" result="effect2_innerShadow_161_71"/>
</filter>
<filter id="filter1_ii_161_71" x="112" y="93.9999" width="97.5145" height="121.5" filterUnits="userSpaceOnUse" color-interpolation-filters="sRGB">
<feFlood flood-opacity="0" result="BackgroundImageFix"/>
<feBlend mode="normal" in="SourceGraphic" in2="BackgroundImageFix" result="shape"/>
<feColorMatrix in="SourceAlpha" type="matrix" values="0 0 0 0 0 0 0 0 0 0 0 0 0 0 0 0 0 0 127 0" result="hardAlpha"/>
<feOffset dx="-16" dy="-16"/>
<feGaussianBlur stdDeviation="4"/>
<feComposite in2="hardAlpha" operator="arithmetic" k2="-1" k3="1"/>
<feColorMatrix type="matrix" values="0 0 0 0 0.509804 0 0 0 0 0.368627 0 0 0 0 0.486275 0 0 0 1 0"/>
<feBlend mode="normal" in2="shape" result="effect1_innerShadow_161_71"/>
<feColorMatrix in="SourceAlpha" type="matrix" values="0 0 0 0 0 0 0 0 0 0 0 0 0 0 0 0 0 0 127 0" result="hardAlpha"/>
<feOffset dy="16"/>
<feGaussianBlur stdDeviation="4"/>
<feComposite in2="hardAlpha" operator="arithmetic" k2="-1" k3="1"/>
<feColorMatrix type="matrix" values="0 0 0 0 1 0 0 0 0 1 0 0 0 0 1 0 0 0 0.25 0"/>
<feBlend mode="normal" in2="effect1_innerShadow_161_71" result="effect2_innerShadow_161_71"/>
</filter>
<filter id="filter2_ii_161_71" x="-7.5" y="101.5" width="149.501" height="123.022" filterUnits="userSpaceOnUse" color-interpolation-filters="sRGB">
<feFlood flood-opacity="0" result="BackgroundImageFix"/>
<feBlend mode="normal" in="SourceGraphic" in2="BackgroundImageFix" result="shape"/>
<feColorMatrix in="SourceAlpha" type="matrix" values="0 0 0 0 0 0 0 0 0 0 0 0 0 0 0 0 0 0 127 0" result="hardAlpha"/>
<feOffset dx="-16" dy="-16"/>
<feGaussianBlur stdDeviation="4"/>
<feComposite in2="hardAlpha" operator="arithmetic" k2="-1" k3="1"/>
<feColorMatrix type="matrix" values="0 0 0 0 1 0 0 0 0 0.376471 0 0 0 0 0.752941 0 0 0 0.25 0"/>
<feBlend mode="normal" in2="shape" result="effect1_innerShadow_161_71"/>
<feColorMatrix in="SourceAlpha" type="matrix" values="0 0 0 0 0 0 0 0 0 0 0 0 0 0 0 0 0 0 127 0" result="hardAlpha"/>
<feOffset dy="15"/>
<feGaussianBlur stdDeviation="7.5"/>
<feComposite in2="hardAlpha" operator="arithmetic" k2="-1" k3="1"/>
<feColorMatrix type="matrix" values="0 0 0 0 0.211765 0 0 0 0 0.411765 0 0 0 0 0.458824 0 0 0 1 0"/>
<feBlend mode="normal" in2="effect1_innerShadow_161_71" result="effect2_innerShadow_161_71"/>
</filter>
<filter id="filter3_ii_161_71" x="91.5007" y="101.5" width="50.5171" height="114" filterUnits="userSpaceOnUse" color-interpolation-filters="sRGB">
<feFlood flood-opacity="0" result="BackgroundImageFix"/>
<feBlend mode="normal" in="SourceGraphic" in2="BackgroundImageFix" result="shape"/>
<feColorMatrix in="SourceAlpha" type="matrix" values="0 0 0 0 0 0 0 0 0 0 0 0 0 0 0 0 0 0 127 0" result="hardAlpha"/>
<feOffset dx="-16" dy="-16"/>
<feGaussianBlur stdDeviation="4"/>
<feComposite in2="hardAlpha" operator="arithmetic" k2="-1" k3="1"/>
<feColorMatrix type="matrix" values="0 0 0 0 0.458824 0 0 0 0 0.337255 0 0 0 0 0.454902 0 0 0 1 0"/>
<feBlend mode="normal" in2="shape" result="effect1_innerShadow_161_71"/>
<feColorMatrix in="SourceAlpha" type="matrix" values="0 0 0 0 0 0 0 0 0 0 0 0 0 0 0 0 0 0 127 0" result="hardAlpha"/>
<feOffset dy="16"/>
<feGaussianBlur stdDeviation="4"/>
<feComposite in2="hardAlpha" operator="arithmetic" k2="-1" k3="1"/>
<feColorMatrix type="matrix" values="0 0 0 0 1 0 0 0 0 1 0 0 0 0 1 0 0 0 0.25 0"/>
<feBlend mode="normal" in2="effect1_innerShadow_161_71" result="effect2_innerShadow_161_71"/>
</filter>
<filter id="filter4_i_161_71" x="98.9591" y="160.5" width="36.0415" height="40" filterUnits="userSpaceOnUse" color-interpolation-filters="sRGB">
<feFlood flood-opacity="0" result="BackgroundImageFix"/>
<feBlend mode="normal" in="SourceGraphic" in2="BackgroundImageFix" result="shape"/>
<feColorMatrix in="SourceAlpha" type="matrix" values="0 0 0 0 0 0 0 0 0 0 0 0 0 0 0 0 0 0 127 0" result="hardAlpha"/>
<feOffset dx="-10" dy="-10"/>
<feGaussianBlur stdDeviation="4"/>
<feComposite in2="hardAlpha" operator="arithmetic" k2="-1" k3="1"/>
<feColorMatrix type="matrix" values="0 0 0 0 1 0 0 0 0 0.376471 0 0 0 0 0.752941 0 0 0 0.25 0"/>
<feBlend mode="normal" in2="shape" result="effect1_innerShadow_161_71"/>
</filter>
<filter id="filter5_d_161_71" x="103" y="166" width="36" height="36.9512" filterUnits="userSpaceOnUse" color-interpolation-filters="sRGB">
<feFlood flood-opacity="0" result="BackgroundImageFix"/>
<feColorMatrix in="SourceAlpha" type="matrix" values="0 0 0 0 0 0 0 0 0 0 0 0 0 0 0 0 0 0 127 0" result="hardAlpha"/>
<feOffset/>
<feGaussianBlur stdDeviation="5"/>
<feComposite in2="hardAlpha" operator="out"/>
<feColorMatrix type="matrix" values="0 0 0 0 0 0 0 0 0 0.866667 0 0 0 0 1 0 0 0 0.5 0"/>
<feBlend mode="normal" in2="BackgroundImageFix" result="effect1_dropShadow_161_71"/>
<feBlend mode="normal" in="SourceGraphic" in2="effect1_dropShadow_161_71" result="shape"/>
</filter>
<filter id="filter6_i_161_71" x="54.5007" y="12.4999" width="102.5" height="90.0002" filterUnits="userSpaceOnUse" color-interpolation-filters="sRGB">
<feFlood flood-opacity="0" result="BackgroundImageFix"/>
<feBlend mode="normal" in="SourceGraphic" in2="BackgroundImageFix" result="shape"/>
<feColorMatrix in="SourceAlpha" type="matrix" values="0 0 0 0 0 0 0 0 0 0 0 0 0 0 0 0 0 0 127 0" result="hardAlpha"/>
<feOffset dy="16"/>
<feGaussianBlur stdDeviation="4"/>
<feComposite in2="hardAlpha" operator="arithmetic" k2="-1" k3="1"/>
<feColorMatrix type="matrix" values="0 0 0 0 0 0 0 0 0 0 0 0 0 0 0 0 0 0 0.25 0"/>
<feBlend mode="normal" in2="shape" result="effect1_innerShadow_161_71"/>
</filter>
<filter id="filter7_ii_161_71" x="18.5007" y="59.4999" width="195.014" height="142.404" filterUnits="userSpaceOnUse" color-interpolation-filters="sRGB">
<feFlood flood-opacity="0" result="BackgroundImageFix"/>
<feBlend mode="normal" in="SourceGraphic" in2="BackgroundImageFix" result="shape"/>
<feColorMatrix in="SourceAlpha" type="matrix" values="0 0 0 0 0 0 0 0 0 0 0 0 0 0 0 0 0 0 127 0" result="hardAlpha"/>
<feOffset dx="8" dy="8"/>
<feGaussianBlur stdDeviation="2"/>
<feComposite in2="hardAlpha" operator="arithmetic" k2="-1" k3="1"/>
<feColorMatrix type="matrix" values="0 0 0 0 0.211765 0 0 0 0 0.419608 0 0 0 0 0.423529 0 0 0 0.5 0"/>
<feBlend mode="normal" in2="shape" result="effect1_innerShadow_161_71"/>
<feColorMatrix in="SourceAlpha" type="matrix" values="0 0 0 0 0 0 0 0 0 0 0 0 0 0 0 0 0 0 127 0" result="hardAlpha"/>
<feOffset dx="-16" dy="-16"/>
<feGaussianBlur stdDeviation="4"/>
<feComposite in2="hardAlpha" operator="arithmetic" k2="-1" k3="1"/>
<feColorMatrix type="matrix" values="0 0 0 0 0.180392 0 0 0 0 0.137255 0 0 0 0 0.192157 0 0 0 1 0"/>
<feBlend mode="normal" in2="effect1_innerShadow_161_71" result="effect2_innerShadow_161_71"/>
</filter>
</defs>
</svg>
