<svg width="161" height="38" viewBox="0 0 161 38" fill="none" xmlns="http://www.w3.org/2000/svg">
<path fill-rule="evenodd" clip-rule="evenodd" d="M8.65212 14.342C9.01567 13.5976 9.91384 13.2889 10.6582 13.6524C24.543 20.4334 32.8647 24.0603 46.5003 24.0603C46.5137 24.0603 46.527 24.0605 46.5403 24.0608C49.476 24.139 51.2088 24.1095 54.6774 23.074C56.1058 22.6476 57.6396 23.1458 58.5577 24.2969C61.0494 27.4213 64.3911 30.0928 67.2357 31.6929C70.9646 33.7904 75.8236 34.8753 80.6878 34.8753C85.5567 34.8753 90.2707 33.7888 93.7286 31.714C96.0216 30.3382 99.8982 27.2663 102.446 24.2008C103.371 23.0869 104.894 22.5759 106.334 23.0089C109.796 24.0499 111.527 24.0796 114.46 24.0008C114.468 24.0006 114.475 24.0005 114.483 24.0004C114.491 24.0003 114.499 24.0003 114.507 24.0003C127.726 24.0569 134.516 20.7113 147.662 14.234C148.048 14.0435 148.44 13.8504 148.838 13.6545C149.581 13.2886 150.48 13.5945 150.846 14.3377C151.212 15.081 150.906 15.9801 150.163 16.346C149.717 16.5654 149.279 16.7816 148.846 16.9948C135.787 23.4312 128.433 27.0559 114.517 27.0004C111.408 27.0834 109.332 27.0431 105.47 25.8818C105.236 25.8113 104.945 25.8874 104.753 26.1182C101.964 29.4737 97.819 32.7583 95.2721 34.2865C91.23 36.7118 85.944 37.8753 80.6878 37.8753C75.427 37.8753 70.036 36.7101 65.7649 34.3076C62.6116 32.5339 58.9641 29.6181 56.2122 26.1674C56.0458 25.9587 55.7737 25.8776 55.5355 25.9487C51.6683 27.1031 49.5936 27.1428 46.4803 27.0603C32.1277 27.0567 23.2818 23.1562 9.34171 16.3481C8.59732 15.9846 8.28858 15.0864 8.65212 14.342Z" fill="white"/>
</svg>
