<svg width="161" height="43" viewBox="0 0 161 43" fill="none" xmlns="http://www.w3.org/2000/svg">
<path fill-rule="evenodd" clip-rule="evenodd" d="M160.819 2.21561C161.214 1.48745 160.944 0.576896 160.216 0.181835C159.487 -0.213226 158.577 0.0568044 158.182 0.784965C155.569 5.59991 154.624 8.7055 154.087 14.0185C140.775 20.3714 128.199 21.059 114.507 21.0003C114.5 21.0003 114.494 21.0003 114.488 21.0003C114.478 21.0004 114.469 21.0006 114.46 21.0008C111.384 21.0834 109.161 21.0093 105.878 19.5074C105.062 19.1339 104.11 19.0622 103.225 19.36C94.8153 22.1905 88.0858 23.686 80.9945 23.737C73.8953 23.7881 66.3324 22.3921 56.2623 19.2988C55.4641 19.0536 54.6186 19.106 53.8767 19.3948C49.7594 20.9972 45.3757 21.0764 42.5402 21.0008C42.5269 21.0005 42.5136 21.0003 42.5003 21.0003C28.8553 21.0003 20.1066 20.4678 6.91283 14.1609C6.37576 8.89165 5.42862 5.8089 2.81631 1.03252C2.4188 0.305696 1.50734 0.0387391 0.780516 0.436255C0.0536921 0.833771 -0.213264 1.74523 0.184252 2.47205C2.70627 7.08334 3.50674 9.82632 3.99667 15.1726C3.65551 21.5473 3.06794 23.5535 1.71855 25.7731C1.28821 26.4809 1.51319 27.4037 2.22107 27.834C2.92895 28.2644 3.85166 28.0394 4.28201 27.3315C5.66511 25.0564 6.33969 22.9382 6.73335 18.9176C15.0723 28.0614 26.4721 33.9926 38.7991 37.6783C52.3664 41.7348 67.1638 43.1045 80.512 43.0003C106.324 42.7987 133.18 35.741 154.225 18.3515C154.613 22.6984 155.284 24.9012 156.716 27.2749C157.144 27.9843 158.066 28.2126 158.775 27.7848C159.484 27.357 159.713 26.435 159.285 25.7256C157.945 23.5039 157.355 21.4918 157.013 15.1983L157.004 15.0279C157.494 9.63452 158.295 6.86658 160.819 2.21561Z" fill="white"/>
</svg>
