<svg width="161" height="38" viewBox="0 0 161 38" fill="none" xmlns="http://www.w3.org/2000/svg">
<path fill-rule="evenodd" clip-rule="evenodd" d="M102.457 24.1552C103.387 23.0982 104.887 22.5737 106.334 23.0089C109.796 24.0499 111.527 24.0796 114.46 24.0008C114.476 24.0004 114.491 24.0002 114.507 24.0003L114.772 24.0014C121.614 24.0306 127.055 24.0538 132.448 25.0056C137.954 25.9772 143.36 27.9038 150.224 31.6866C150.95 32.0864 151.214 32.9987 150.814 33.7243C150.414 34.4498 149.502 34.7139 148.776 34.314C142.14 30.6568 137.046 28.8633 131.927 27.96C126.787 27.0529 121.571 27.0306 114.584 27.0007L114.517 27.0004C111.407 27.0834 109.332 27.0431 105.47 25.8818C105.243 25.8135 104.933 25.8824 104.708 26.1377C101.927 29.2959 97.847 31.7425 95.447 33.1816C95.3876 33.2172 95.3292 33.2522 95.272 33.2865C91.2299 35.7118 85.9439 36.8753 80.6877 36.8753C75.4269 36.8753 70.0359 35.7101 65.7648 33.3077C65.5248 33.1726 65.2789 33.0357 65.0281 32.896C62.227 31.3355 58.8202 29.4377 56.2121 26.1674C56.0457 25.9588 55.7736 25.8776 55.5354 25.9487C51.6682 27.1031 49.5935 27.1428 46.4803 27.0603C32.4508 27.0603 21.9381 27.0994 10.8875 35.2096C10.2196 35.6997 9.28086 35.5557 8.79071 34.8878C8.30055 34.2199 8.44461 33.2812 9.11248 32.791C21.009 24.06 32.448 24.0601 46.3333 24.0603L46.5002 24.0603C46.5135 24.0603 46.5268 24.0605 46.5402 24.0608C49.4758 24.139 51.2086 24.1095 54.6773 23.074C56.1057 22.6476 57.6395 23.1458 58.5575 24.2969C60.7801 27.0838 63.6852 28.7076 66.544 30.3055C66.775 30.4346 67.0056 30.5636 67.2356 30.6929C70.9645 32.7904 75.8235 33.8753 80.6877 33.8753C85.5565 33.8753 90.2706 32.7888 93.7285 30.7141L93.7827 30.6815C96.2413 29.2065 99.9884 26.9583 102.457 24.1552Z" fill="white"/>
</svg>
