<svg width="161" height="38" viewBox="0 0 161 38" fill="none" xmlns="http://www.w3.org/2000/svg">
<path fill-rule="evenodd" clip-rule="evenodd" d="M160.216 0.181835C160.944 0.576896 161.214 1.48745 160.819 2.21561C158.295 6.86673 157.494 9.63469 157.004 15.0284C157.345 21.4573 157.933 23.4841 159.285 25.7256C159.713 26.435 159.484 27.357 158.775 27.7848C158.066 28.2126 157.144 27.9843 156.716 27.2749C155.175 24.7207 154.515 22.3633 154.142 17.3218C140.825 23.6218 128.112 27.0546 114.517 27.0004C111.407 27.0834 109.332 27.0431 105.47 25.8818C105.236 25.8113 104.945 25.8874 104.753 26.1182C101.964 29.4737 97.819 32.7583 95.272 34.2865C91.2299 36.7118 85.944 37.8753 80.6878 37.8753C75.427 37.8753 70.036 36.7101 65.7649 34.3076C62.6115 32.5339 58.9641 29.6181 56.2122 26.1674C56.0457 25.9588 55.7737 25.8776 55.5355 25.9487C51.6683 27.1031 49.5935 27.1428 46.4803 27.0603C32.8918 27.057 20.181 23.7055 6.85826 17.4574C6.48499 22.4547 5.8236 24.7957 4.28201 27.3315C3.85166 28.0394 2.92895 28.2644 2.22107 27.834C1.51319 27.4037 1.28821 26.4809 1.71855 25.7731C3.06794 23.5535 3.65551 21.5473 3.99667 15.1726C3.50675 9.82632 2.70627 7.08334 0.184252 2.47205C-0.213264 1.74523 0.0536921 0.833771 0.780516 0.436255C1.50734 0.0387391 2.4188 0.305696 2.81631 1.03252C5.42882 5.80926 6.3759 8.89211 6.91295 14.1621C20.3922 20.6463 33.0312 24.0603 46.5003 24.0603C46.5136 24.0603 46.5269 24.0605 46.5402 24.0608C49.4759 24.139 51.2087 24.1095 54.6773 23.074C56.1057 22.6476 57.6396 23.1458 58.5576 24.2969C61.0493 27.4213 64.391 30.0928 67.2357 31.6929C70.9646 33.7904 75.8236 34.8753 80.6878 34.8753C85.5566 34.8753 90.2706 33.7888 93.7285 31.714C96.0215 30.3383 99.8981 27.2664 102.446 24.2008C103.371 23.0869 104.894 22.5759 106.334 23.0089C109.796 24.0499 111.527 24.0796 114.46 24.0008C114.476 24.0004 114.491 24.0002 114.507 24.0003C127.967 24.058 140.602 20.5632 154.087 14.0216C154.623 8.70672 155.569 5.60085 158.182 0.784965C158.577 0.0568044 159.487 -0.213226 160.216 0.181835Z" fill="white"/>
</svg>
