<svg width="158" height="145" viewBox="0 0 158 145" fill="none" xmlns="http://www.w3.org/2000/svg">
<g filter="url(#filter0_d_161_103)">
<path d="M9 83C10.1418 76.4176 14.8874 65.5003 20 54C51 54 119 56 138.16 54C143.277 66.4793 139.156 78.624 129 84L122.5 69C118.004 96.1783 110.244 104.576 91 112.5L92 92.5C87.1372 108.817 84.0023 114.891 77.5 119C72.8866 116.526 71.0866 109.917 68.5 94C66.5449 108.108 65.2932 114.705 62 117.5C55.9581 114.234 52.259 109.178 45.5 98.5V109.5C30.2724 105.268 28.471 95.3891 25.5 77.5C20.4048 84.2823 16.6571 85.0243 9 83Z" fill="white"/>
<path d="M9 83C10.1418 76.4176 14.8874 65.5003 20 54C51 54 119 56 138.16 54C143.277 66.4793 139.156 78.624 129 84L122.5 69C118.004 96.1783 110.244 104.576 91 112.5L92 92.5C87.1372 108.817 84.0023 114.891 77.5 119C72.8866 116.526 71.0866 109.917 68.5 94C66.5449 108.108 65.2932 114.705 62 117.5C55.9581 114.234 52.259 109.178 45.5 98.5V109.5C30.2724 105.268 28.471 95.3891 25.5 77.5C20.4048 84.2823 16.6571 85.0243 9 83Z" stroke="black" stroke-width="3" stroke-linejoin="round"/>
</g>
<g filter="url(#filter1_ii_161_103)">
<path d="M104 5.40388C106.218 4.39461 108.534 3.2671 111 2C113.808 2.23106 116.274 2.35053 118.5 2.3438L152 25.5C144.002 31.3653 138.315 34.1718 126.5 38.5C145.681 55.0187 143.444 76.3545 129 84L122.5 69C118.004 96.1783 110.244 104.576 91 112.5L92 92.5C87.1372 108.817 84.0023 114.891 77.5 119C72.8866 116.526 71.0866 109.917 68.5 94C66.5449 108.108 65.2932 114.705 62 117.5C55.9581 114.234 52.259 109.178 45.5 98.5V109.5C30.2724 105.268 28.471 95.3891 25.5 77.5C20.4048 84.2823 16.6571 85.0243 9 83C10.1418 76.4176 13.3874 69.5003 18.5 58C33.7573 77.2681 43.3665 82.5188 62 84C88.9595 77.5871 98.5951 68.9103 111 49C107.931 42.3955 105.051 38.344 94.5 29.5C99.6166 26.5961 102.531 24.0629 106.348 18.8412C107.441 17.3459 107.969 15.4836 107.694 13.6518C107.318 11.1376 106.538 8.97309 104 5.40388Z" fill="#373A40"/>
</g>
<path d="M104 5.40388C106.218 4.39461 108.534 3.2671 111 2C113.808 2.23106 116.274 2.35053 118.5 2.3438L152 25.5C144.002 31.3653 138.315 34.1718 126.5 38.5C145.681 55.0187 143.444 76.3545 129 84L122.5 69C118.004 96.1783 110.244 104.576 91 112.5L92 92.5C87.1372 108.817 84.0023 114.891 77.5 119C72.8866 116.526 71.0866 109.917 68.5 94C66.5449 108.108 65.2932 114.705 62 117.5C55.9581 114.234 52.259 109.178 45.5 98.5V109.5C30.2724 105.268 28.471 95.3891 25.5 77.5C20.4048 84.2823 16.6571 85.0243 9 83C10.1418 76.4176 13.3874 69.5003 18.5 58C33.7573 77.2681 43.3665 82.5188 62 84C88.9595 77.5871 98.5951 68.9103 111 49C107.931 42.3955 105.051 38.344 94.5 29.5C99.6166 26.5961 102.531 24.0629 106.348 18.8412C107.441 17.3459 107.969 15.4836 107.694 13.6518C107.318 11.1376 106.538 8.97309 104 5.40388Z" stroke="black" stroke-width="3" stroke-linejoin="round"/>
<g filter="url(#filter2_ii_161_103)">
<path d="M107.739 13.6477C107.38 10.3413 106.644 6.71765 104 3H28C28.3774 9.46141 28.4412 12.627 26.5 17.5C21.5064 28.4158 16.255 34.232 2 44C5.53358 47.3239 8.39854 48.7706 18.5 49C19.3355 52.7985 19.3064 54.7575 18.5 58C33.7573 77.2682 43.3665 82.5188 62 84C88.9595 77.5872 98.5951 68.9104 111 49C107.931 42.3956 105.051 38.344 94.5 29.5C99.6166 26.5961 102.531 24.0629 106.348 18.8413C107.441 17.346 107.94 15.489 107.739 13.6477Z" fill="#9C9CA3"/>
</g>
<path d="M26.5 17.5C21.5064 28.4158 16.255 34.232 2 44C5.53358 47.3239 8.39854 48.7706 18.5 49C19.3355 52.7985 19.3064 54.7575 18.5 58C33.7573 77.2682 43.3665 82.5188 62 84C88.9595 77.5872 98.5951 68.9104 111 49C107.931 42.3956 105.051 38.344 94.5 29.5C99.6166 26.5961 102.531 24.0629 106.348 18.8413C107.441 17.346 107.94 15.489 107.739 13.6477C107.38 10.3413 106.644 6.71765 104 3H28C28.3774 9.46141 28.4412 12.627 26.5 17.5ZM26.5 17.5C22.2171 28.4206 19.7349 34.51 12 44C16.6215 45.0993 19.3485 45.2705 25 43C26.9732 50.7952 26.0798 53.2022 25 58M49 27C41.8251 34.134 38.502 37.9316 35 44C40.3298 43.9254 43.1017 43.5467 47.5 42C45.6255 46.0844 43.9132 48.4865 39.5 53" stroke="black" stroke-width="3" stroke-linecap="round" stroke-linejoin="round"/>
<g filter="url(#filter3_d_161_103)">
<path d="M26.5 17.5C22.2171 28.4206 19.7349 34.5099 12 44C16.6215 45.0992 19.3485 45.2705 25 43C26.9732 50.7952 26.0798 53.2021 25 58M49 27C41.8251 34.134 38.502 37.9316 35 44C40.3298 43.9254 43.1017 43.5467 47.5 42C45.6255 46.0844 43.9132 48.4865 39.5 53" stroke="black" stroke-width="3" stroke-linecap="round" stroke-linejoin="round"/>
</g>
<defs>
<filter id="filter0_d_161_103" x="7.49976" y="52.4999" width="150.357" height="92.0001" filterUnits="userSpaceOnUse" color-interpolation-filters="sRGB">
<feFlood flood-opacity="0" result="BackgroundImageFix"/>
<feColorMatrix in="SourceAlpha" type="matrix" values="0 0 0 0 0 0 0 0 0 0 0 0 0 0 0 0 0 0 127 0" result="hardAlpha"/>
<feOffset dx="8" dy="16"/>
<feGaussianBlur stdDeviation="4"/>
<feComposite in2="hardAlpha" operator="out"/>
<feColorMatrix type="matrix" values="0 0 0 0 0.258824 0 0 0 0 0.0431373 0 0 0 0 0.239216 0 0 0 0.5 0"/>
<feBlend mode="normal" in2="BackgroundImageFix" result="effect1_dropShadow_161_103"/>
<feBlend mode="normal" in="SourceGraphic" in2="effect1_dropShadow_161_103" result="shape"/>
</filter>
<filter id="filter1_ii_161_103" x="-0.500244" y="-7.5" width="154" height="136" filterUnits="userSpaceOnUse" color-interpolation-filters="sRGB">
<feFlood flood-opacity="0" result="BackgroundImageFix"/>
<feBlend mode="normal" in="SourceGraphic" in2="BackgroundImageFix" result="shape"/>
<feColorMatrix in="SourceAlpha" type="matrix" values="0 0 0 0 0 0 0 0 0 0 0 0 0 0 0 0 0 0 127 0" result="hardAlpha"/>
<feOffset dy="16"/>
<feGaussianBlur stdDeviation="4"/>
<feComposite in2="hardAlpha" operator="arithmetic" k2="-1" k3="1"/>
<feColorMatrix type="matrix" values="0 0 0 0 0.211765 0 0 0 0 0.419608 0 0 0 0 0.423529 0 0 0 0.5 0"/>
<feBlend mode="normal" in2="shape" result="effect1_innerShadow_161_103"/>
<feColorMatrix in="SourceAlpha" type="matrix" values="0 0 0 0 0 0 0 0 0 0 0 0 0 0 0 0 0 0 127 0" result="hardAlpha"/>
<feOffset dx="-16" dy="-16"/>
<feGaussianBlur stdDeviation="4"/>
<feComposite in2="hardAlpha" operator="arithmetic" k2="-1" k3="1"/>
<feColorMatrix type="matrix" values="0 0 0 0 0.180392 0 0 0 0 0.137255 0 0 0 0 0.192157 0 0 0 1 0"/>
<feBlend mode="normal" in2="effect1_innerShadow_161_103" result="effect2_innerShadow_161_103"/>
</filter>
<filter id="filter2_ii_161_103" x="-7.5" y="-6.5" width="128" height="92.0001" filterUnits="userSpaceOnUse" color-interpolation-filters="sRGB">
<feFlood flood-opacity="0" result="BackgroundImageFix"/>
<feBlend mode="normal" in="SourceGraphic" in2="BackgroundImageFix" result="shape"/>
<feColorMatrix in="SourceAlpha" type="matrix" values="0 0 0 0 0 0 0 0 0 0 0 0 0 0 0 0 0 0 127 0" result="hardAlpha"/>
<feOffset dx="16"/>
<feGaussianBlur stdDeviation="4"/>
<feComposite in2="hardAlpha" operator="arithmetic" k2="-1" k3="1"/>
<feColorMatrix type="matrix" values="0 0 0 0 0.729412 0 0 0 0 0.760784 0 0 0 0 0.603922 0 0 0 1 0"/>
<feBlend mode="normal" in2="shape" result="effect1_innerShadow_161_103"/>
<feColorMatrix in="SourceAlpha" type="matrix" values="0 0 0 0 0 0 0 0 0 0 0 0 0 0 0 0 0 0 127 0" result="hardAlpha"/>
<feOffset dx="-16" dy="-16"/>
<feGaussianBlur stdDeviation="4"/>
<feComposite in2="hardAlpha" operator="arithmetic" k2="-1" k3="1"/>
<feColorMatrix type="matrix" values="0 0 0 0 0.509804 0 0 0 0 0.368627 0 0 0 0 0.486275 0 0 0 0.5 0"/>
<feBlend mode="normal" in2="effect1_innerShadow_161_103" result="effect2_innerShadow_161_103"/>
</filter>
<filter id="filter3_d_161_103" x="10.5" y="11.9996" width="48" height="51.5007" filterUnits="userSpaceOnUse" color-interpolation-filters="sRGB">
<feFlood flood-opacity="0" result="BackgroundImageFix"/>
<feColorMatrix in="SourceAlpha" type="matrix" values="0 0 0 0 0 0 0 0 0 0 0 0 0 0 0 0 0 0 127 0" result="hardAlpha"/>
<feOffset dx="4"/>
<feGaussianBlur stdDeviation="2"/>
<feComposite in2="hardAlpha" operator="out"/>
<feColorMatrix type="matrix" values="0 0 0 0 0.729412 0 0 0 0 0.760784 0 0 0 0 0.603922 0 0 0 1 0"/>
<feBlend mode="normal" in2="BackgroundImageFix" result="effect1_dropShadow_161_103"/>
<feBlend mode="normal" in="SourceGraphic" in2="effect1_dropShadow_161_103" result="shape"/>
</filter>
</defs>
</svg>
